<svg id="Layer_1" data-name="Layer 1" xmlns="http://www.w3.org/2000/svg" viewBox="0 0 400 600"><defs><style>.cls-1{fill:#283388;}.cls-2{fill:#f7e93e;}.cls-3{fill:#fbbe40;}.cls-4{fill:#df79ae;}.cls-5{fill:#54c0e3;}</style></defs><rect class="cls-1" width="400" height="600"/><polygon class="cls-2" points="309.6 -50.91 199.6 357.14 89.6 -50.91 309.6 -50.91 309.6 -50.91"/><polygon class="cls-3" points="85.02 -51.18 197.34 356.24 -104.54 60.48 85.02 -51.18 85.02 -51.18"/><polygon class="cls-3" points="504.54 60.48 202.66 356.24 314.99 -51.18 504.54 60.48 504.54 60.48"/><polygon class="cls-2" points="-108.33 63.1 195.23 357.14 -214.99 255.52 -108.33 63.1 -108.33 63.1"/><polygon class="cls-2" points="615.09 255.52 204.87 357.14 508.44 63.1 615.09 255.52 615.09 255.52"/><polygon class="cls-3" points="-216.6 259.61 194.19 358.89 -210.84 479.54 -216.6 259.61 -216.6 259.61"/><polygon class="cls-3" points="610.84 479.54 205.81 358.89 616.6 259.61 610.84 479.54 610.84 479.54"/><circle class="cls-4" cx="199.6" cy="357.14" r="101.18"/><rect class="cls-5" y="356.24" width="400" height="242.86"/></svg>