<svg id="Layer_1" data-name="Layer 1" xmlns="http://www.w3.org/2000/svg" xmlns:xlink="http://www.w3.org/1999/xlink" viewBox="0 0 400 600"><defs><style>.cls-1{fill:none;}.cls-2{fill:#b2cbeb;stroke:#b2cbeb;}.cls-10,.cls-11,.cls-12,.cls-14,.cls-15,.cls-16,.cls-17,.cls-18,.cls-19,.cls-2,.cls-20,.cls-21,.cls-22,.cls-23,.cls-24,.cls-25,.cls-27,.cls-28,.cls-29,.cls-3,.cls-7,.cls-8,.cls-9{stroke-miterlimit:10;}.cls-3{fill:#fee6c8;stroke:#fee6c8;}.cls-4{fill:#283388;}.cls-5{fill:#ceb135;}.cls-6{fill:#d88225;}.cls-7{fill:#e29c8e;stroke-width:2px;}.cls-7,.cls-8{stroke:#000;}.cls-8{fill:#009d6d;}.cls-10,.cls-11,.cls-16,.cls-17,.cls-9{stroke:#303031;}.cls-9{fill:url(#linear-gradient);}.cls-10{fill:#354999;}.cls-11{fill:url(#New_Pattern);}.cls-12,.cls-26{fill:#2d2d2d;}.cls-12,.cls-15,.cls-18,.cls-19,.cls-20,.cls-21,.cls-22,.cls-23,.cls-24,.cls-25,.cls-27,.cls-28{stroke:#2d2d2d;}.cls-12,.cls-14,.cls-25,.cls-27,.cls-28{stroke-linecap:round;}.cls-12,.cls-25,.cls-27,.cls-28{stroke-width:2.5px;}.cls-13,.cls-14{fill:#d3d3d3;}.cls-14{stroke:#d3d3d3;}.cls-15{fill:#f4d0b4;}.cls-16{fill:#303031;}.cls-17{fill:#dddae8;}.cls-18{fill:#badab3;}.cls-19{fill:#df97c2;}.cls-20,.cls-29{fill:#d8394a;}.cls-21{fill:#344898;}.cls-22{fill:#f1bcd5;}.cls-23{fill:#efd7e5;}.cls-24{fill:#e4e1e6;}.cls-25{fill:#c1c0e1;}.cls-26{font-size:30px;font-family:SuperMagic, Super Magic;}.cls-27{fill:#e4d3e9;}.cls-28{fill:#b8e0eb;}.cls-29{stroke:#d8394a;}</style><linearGradient id="linear-gradient" y1="82.36" x2="400" y2="82.36" gradientUnits="userSpaceOnUse"><stop offset="0" stop-color="#8bbcb5"/><stop offset="1" stop-color="#f2af18"/></linearGradient><pattern id="New_Pattern" data-name="New Pattern" width="21.02" height="21.28" patternUnits="userSpaceOnUse" viewBox="0 0 21.02 21.28"><rect class="cls-1" width="21.02" height="21.28"/><rect class="cls-2" x="0.5" y="0.5" width="10" height="10"/><rect class="cls-3" x="10.52" y="0.5" width="10" height="10"/><rect class="cls-3" x="0.5" y="10.78" width="10" height="10"/><rect class="cls-2" x="10.52" y="10.78" width="10" height="10"/></pattern></defs><rect class="cls-4" width="400" height="600"/><polygon class="cls-5" points="310 -50.91 200 357.14 90 -50.91 310 -50.91 310 -50.91"/><polygon class="cls-6" points="85.02 -51.18 197.34 356.24 -104.54 60.48 85.02 -51.18 85.02 -51.18"/><polygon class="cls-6" points="504.54 60.48 202.66 356.24 314.99 -51.18 504.54 60.48 504.54 60.48"/><polygon class="cls-5" points="-108.33 63.1 195.23 357.14 -214.99 255.52 -108.33 63.1 -108.33 63.1"/><polygon class="cls-5" points="615.09 255.52 204.87 357.14 508.44 63.1 615.09 255.52 615.09 255.52"/><polygon class="cls-6" points="-216.6 259.61 194.19 358.89 -210.84 479.54 -216.6 259.61 -216.6 259.61"/><polygon class="cls-6" points="610.84 479.54 205.81 358.89 616.6 259.61 610.84 479.54 610.84 479.54"/><circle class="cls-7" cx="199.6" cy="357.14" r="101.18"/><rect class="cls-8" x="-30.94" y="356.24" width="461.87" height="250.01"/><rect class="cls-9" y="0.16" width="400" height="164.41" transform="translate(400 164.73) rotate(180)"/><path class="cls-10" d="M320,130.27c-6.71-8-14.37-10.59-20.9-12.82a50.15,50.15,0,0,0-17.8-3.21c-18.55.47-22.45,14.19-45.81,20.84-5.23,1.49-13.25,3.68-23.58,2.14-5.19-.78-15.92-2.54-25.36-11.76-7.4-7.23-10.42-15.55-14.68-27.25-8.37-23-4.45-29.89-12.45-42.22a43.69,43.69,0,0,0-22.24-17.64c-4.05-1.34-8.21-1.89-25.36,0-26.07,2.88-26.46,5.25-36,4.28-7.3-.74-20-2-30.69-13.36-9.56-10.1-12.69-23-13.79-29H0V164.47H333.79a81.05,81.05,0,0,0-6.22-21.37A51.08,51.08,0,0,0,320,130.27Z"/><path class="cls-11" d="M260.83.26c4.28,3.14,9.39,8.08,10.17,15,.82,7.32-4,10.46-4,18.9,0,9.64,6.24,16.89,9.73,20.93,8.52,9.89,18.68,12.46,24.32,13.79,4.05,1,24.53,5.8,40.24-7.15C349.4,55,349.75,49,359,43.81a32.07,32.07,0,0,1,19.9-4.09c11.35,1.5,18.67,9,21.1,11.75V.26Z"/><line class="cls-12" x1="12.18" y1="330.15" x2="-4.31" y2="330.15"/><line class="cls-12" x1="12.18" y1="344.7" x2="-4.31" y2="344.7"/><line class="cls-12" x1="12.18" y1="337.94" x2="-4.31" y2="337.94"/><path class="cls-13" d="M125,367.74c17.78-1.46,38.41-2.09,56.25-2.41,27.25-.32,57.2,0,84.37,1.74l4.69.29,4.69.38c1,.86-75,.16-75,.45,0-.29-76,.41-75-.45Z"/><path class="cls-13" d="M137.5,375.91c20.48-2.05,41.89-2.43,62.5-2.54,20.62.12,42,.5,62.5,2.54a.16.16,0,0,1,.15.17c-30.74.23-95.22.72-125.15-.17Z"/><path class="cls-12" d="M5.72,416.42V362.67H122.15v26.94C102.79,380,95,381.1,91.51,384.25c-6.9,6.27.73,23.31-5.62,26.81-5.42,3-13.44-8.12-21.19-4.85-4.2,1.77-3,5.88-9.19,14-4.76,6.22-9.71,12.69-17.87,15.32C29.77,438.1,22.2,436,17.47,434A22.21,22.21,0,0,1,5.72,416.42Z"/><path class="cls-14" d="M0,411.09V357.35H116.43v26.93c-19.36-9.59-27.18-8.5-30.64-5.36-6.9,6.28.72,23.31-5.62,26.81-5.42,3-13.45-8.11-21.19-4.85-4.2,1.77-2.95,5.89-9.19,14-4.76,6.23-9.71,12.69-17.88,15.32-7.86,2.54-15.43.45-20.17-1.53A22.13,22.13,0,0,1,0,411.09Z"/><polygon class="cls-15" points="19.21 359.62 22.69 366.68 30.48 367.81 24.84 373.3 26.18 381.05 19.21 377.39 12.25 381.05 13.58 373.3 7.95 367.81 15.73 366.68 19.21 359.62"/><polygon class="cls-15" points="60.91 391.87 66.55 398.7 75.38 397.93 70.62 405.4 74.09 413.55 65.51 411.34 58.83 417.15 58.28 408.31 50.69 403.75 58.92 400.5 60.91 391.87"/><polygon class="cls-15" points="74.02 378.28 75.77 367.01 67.49 359.18 78.74 357.37 83.63 347.07 88.83 357.21 100.14 358.68 92.1 366.76 94.2 377.96 84.03 372.82 74.02 378.28"/><circle class="cls-16" cx="93" cy="24.38" r="11.01"/><circle class="cls-17" cx="91.06" cy="22.72" r="11.01"/><circle class="cls-16" cx="101.24" cy="48.23" r="7.45"/><circle class="cls-17" cx="99.34" cy="46.07" r="7.45"/><circle class="cls-16" cx="116.32" cy="18.65" r="5.73"/><circle class="cls-17" cx="114.41" cy="17" r="5.73"/><circle class="cls-16" cx="374.7" cy="43.97" r="11.01"/><circle class="cls-17" cx="372.31" cy="41.67" r="11.01"/><circle class="cls-16" cx="355.64" cy="60.98" r="7.45"/><circle class="cls-17" cx="353.86" cy="59.01" r="7.45"/><circle class="cls-16" cx="374.7" cy="69.5" r="5.73"/><circle class="cls-17" cx="372.9" cy="67.8" r="5.73"/><polygon class="cls-18" points="367.61 20.86 360.19 20.4 355.6 26.24 353.75 19.05 346.77 16.49 353.05 12.51 353.32 5.08 359.05 9.81 366.2 7.78 363.46 14.69 367.61 20.86"/><polygon class="cls-18" points="29.63 153.72 22.21 153.25 17.63 159.1 15.77 151.9 8.8 149.35 15.07 145.36 15.35 137.94 21.07 142.67 28.22 140.64 25.49 147.55 29.63 153.72"/><path class="cls-19" d="M364.41,535.09a15,15,0,0,1,9.86,3.56l2.88,2.52,19.71,17.21-19.71,17.21-2.88,2.52a15.39,15.39,0,0,1-19.71,0,11.11,11.11,0,0,1,0-17.21l2.89-2.52-2.89-2.52a11.11,11.11,0,0,1,0-17.21A15,15,0,0,1,364.41,535.09Z"/><path class="cls-20" d="M382.92,532.73a15,15,0,0,1-9.85-3.56l-2.88-2.52-19.71-17.22,19.71-17.21,2.88-2.52a15.41,15.41,0,0,1,19.71,0,11.11,11.11,0,0,1,0,17.21l-2.89,2.52,2.89,2.52a11.12,11.12,0,0,1,0,17.22A15,15,0,0,1,382.92,532.73Z"/><path class="cls-21" d="M364.41,429.77a15,15,0,0,1,9.86,3.56l2.88,2.52,19.71,17.21-19.71,17.21-2.88,2.52a15.39,15.39,0,0,1-19.71,0,11.11,11.11,0,0,1,0-17.21l2.89-2.52-2.89-2.52a11.11,11.11,0,0,1,0-17.21A15,15,0,0,1,364.41,429.77Z"/><path class="cls-18" d="M382.92,427.41a15,15,0,0,1-9.85-3.57l-2.88-2.52-19.71-17.21,19.71-17.21,2.88-2.52a15.41,15.41,0,0,1,19.71,0,11.11,11.11,0,0,1,0,17.21l-2.89,2.52,2.89,2.52a11.11,11.11,0,0,1,0,17.21A15,15,0,0,1,382.92,427.41Z"/><line class="cls-12" x1="405.11" y1="390.79" x2="388.62" y2="390.79"/><line class="cls-12" x1="405.11" y1="384.02" x2="388.62" y2="384.02"/><line class="cls-12" x1="405.11" y1="405.34" x2="388.62" y2="405.34"/><line class="cls-12" x1="405.11" y1="398.57" x2="388.62" y2="398.57"/><line class="cls-12" x1="405.11" y1="418.87" x2="388.62" y2="418.87"/><line class="cls-12" x1="405.11" y1="412.11" x2="388.62" y2="412.11"/><line class="cls-12" x1="405.11" y1="433.43" x2="388.62" y2="433.43"/><line class="cls-12" x1="405.11" y1="426.66" x2="388.62" y2="426.66"/><polygon class="cls-15" points="382.31 386.99 370.98 386.28 363.97 395.21 361.14 384.22 350.48 380.31 360.07 374.23 360.49 362.88 369.24 370.11 380.16 367.01 375.98 377.56 382.31 386.99"/><polygon class="cls-15" points="358.63 345.46 359.21 349.71 363.05 351.64 359.19 353.5 358.54 357.75 355.57 354.65 351.33 355.34 353.36 351.56 351.39 347.75 355.61 348.51 358.63 345.46"/><polygon class="cls-15" points="337.86 377.46 331.9 378.14 329.07 383.44 326.58 377.97 320.67 376.92 325.1 372.86 324.27 366.91 329.5 369.88 334.9 367.25 333.7 373.13 337.86 377.46"/><ellipse class="cls-22" cx="67.25" cy="589.15" rx="53.2" ry="37.71" transform="translate(-44.95 6.88) rotate(-4.39)"/><ellipse class="cls-23" cx="67.25" cy="589.15" rx="30.43" ry="42.92" transform="translate(-525.2 614.19) rotate(-85.91)"/><ellipse class="cls-24" cx="67.25" cy="589.15" rx="29.72" ry="21.07" transform="translate(-72.28 12.82) rotate(-7.1)"/><ellipse class="cls-24" cx="67.25" cy="589.15" rx="14.76" ry="20.82" transform="translate(-525.73 589.96) rotate(-83.57)"/><ellipse class="cls-22" cx="194.59" cy="589.15" rx="53.2" ry="37.71" transform="translate(-44.57 16.64) rotate(-4.39)"/><ellipse class="cls-23" cx="194.59" cy="589.15" rx="30.43" ry="42.92" transform="translate(-406.95 741.21) rotate(-85.91)"/><ellipse class="cls-24" cx="194.59" cy="589.15" rx="29.72" ry="21.07" transform="translate(-71.3 28.56) rotate(-7.1)"/><ellipse class="cls-24" cx="194.59" cy="589.15" rx="14.76" ry="20.82" transform="translate(-412.66 716.51) rotate(-83.57)"/><ellipse class="cls-22" cx="332.75" cy="589.15" rx="53.2" ry="37.71" transform="translate(-44.17 27.23) rotate(-4.39)"/><ellipse class="cls-23" cx="332.75" cy="589.15" rx="30.43" ry="42.92" transform="translate(-278.64 879.02) rotate(-85.91)"/><ellipse class="cls-24" cx="332.75" cy="589.15" rx="29.72" ry="21.07" transform="translate(-70.24 45.63) rotate(-7.1)"/><ellipse class="cls-24" cx="332.75" cy="589.15" rx="14.76" ry="20.82" transform="translate(-289.97 853.8) rotate(-83.57)"/><rect class="cls-12" x="-55.35" y="232.25" width="189.28" height="40.85" rx="20.43" transform="translate(-213.38 291.97) rotate(-90)"/><rect class="cls-25" x="-48.61" y="224.05" width="189.28" height="40.85" rx="20.43" transform="translate(-198.44 290.5) rotate(-90)"/><text class="cls-26" transform="translate(35.89 181.71)">S<tspan x="0" y="36">C</tspan><tspan x="0" y="72">O</tspan><tspan x="0" y="108">R</tspan><tspan x="0" y="144">E</tspan></text><ellipse class="cls-14" cx="122.64" cy="115.21" rx="44.2" ry="22.72"/><circle class="cls-12" cx="122.64" cy="115.21" r="21.4"/><line class="cls-12" x1="122.64" y1="63.77" x2="122.64" y2="84.15"/><line class="cls-12" x1="99.7" y1="65.99" x2="108.31" y2="84.46"/><line class="cls-12" x1="80.06" y1="75.81" x2="95.67" y2="88.91"/><line class="cls-12" x1="62.31" y1="93.34" x2="81.99" y2="98.61"/><line class="cls-12" x1="122.64" y1="63.77" x2="122.64" y2="84.15"/><line class="cls-12" x1="145.59" y1="65.99" x2="136.98" y2="84.46"/><line class="cls-12" x1="165.23" y1="75.81" x2="149.62" y2="88.91"/><line class="cls-12" x1="182.98" y1="93.34" x2="163.3" y2="98.61"/><line class="cls-12" x1="99.1" y1="168.31" x2="107.71" y2="149.84"/><line class="cls-12" x1="79.46" y1="158.49" x2="95.07" y2="145.39"/><line class="cls-12" x1="61.71" y1="140.96" x2="81.4" y2="135.69"/><line class="cls-12" x1="122.05" y1="170.53" x2="122.05" y2="150.16"/><line class="cls-12" x1="144.99" y1="168.31" x2="136.38" y2="149.84"/><line class="cls-12" x1="164.64" y1="158.49" x2="149.03" y2="145.39"/><line class="cls-12" x1="182.38" y1="140.96" x2="162.7" y2="135.69"/><rect class="cls-27" x="29.77" y="419.63" width="24.17" height="73.53" rx="12.08" transform="translate(498.24 414.55) rotate(90)"/><circle class="cls-28" cx="20.97" cy="456.39" r="8.79"/><circle class="cls-28" cx="41.85" cy="456.39" r="8.79"/><circle class="cls-28" cx="63.03" cy="456.39" r="8.79"/><path class="cls-29" d="M22.51,21.5a53,53,0,0,1-1.28,12.32l-.91,3.61-6.2,24.64L7.92,37.43,7,33.82A59.82,59.82,0,0,1,7,9.18c.85-3.4,2-5.1,3.1-5.1s2.24,1.7,3.1,5.1l.91,3.61L15,9.18c1.71-6.8,4.49-6.8,6.2,0A53.06,53.06,0,0,1,22.51,21.5Z"/></svg>