<svg id="Layer_1" data-name="Layer 1" xmlns="http://www.w3.org/2000/svg" viewBox="0 0 1920 1080"><defs><style>.cls-1{fill:#caccaa;}.cls-2{fill:none;stroke:#caccaa;stroke-miterlimit:10;stroke-width:2px;}.cls-3{fill:#efebbd;}.cls-4{fill:#8dbec9;}.cls-5{fill:#cec0d6;}.cls-6{fill:#879bc9;}.cls-7{fill:#8797c8;}.cls-8{fill:#eae8d6;}</style></defs><circle class="cls-1" cx="182.55" cy="153.19" r="7.66"/><circle class="cls-1" cx="656.68" cy="201.45" r="7.66"/><circle class="cls-1" cx="1238.81" cy="317.87" r="7.66"/><circle class="cls-1" cx="1300.4" cy="795.21" r="7.66"/><circle class="cls-1" cx="748.91" cy="501.09" r="7.66"/><circle class="cls-1" cx="983.3" cy="623.64" r="7.66"/><circle class="cls-1" cx="1683.38" cy="280.49" r="7.66"/><circle class="cls-1" cx="840.83" cy="163.55" r="29.87"/><ellipse class="cls-2" cx="842.11" cy="163.55" rx="54.13" ry="10.98" transform="translate(-15.72 168.69) rotate(-11.33)"/><path class="cls-3" d="M1707.6,657.64a120.47,120.47,0,0,1-90-40.06,105.19,105.19,0,1,0,0-162,121.07,121.07,0,1,1,90,202.07Z"/><path class="cls-3" d="M1707.6,416a120.57,120.57,0,1,1-85,206.06,105.69,105.69,0,1,0,0-171,119.93,119.93,0,0,1,85-35.07m0-1a121.35,121.35,0,0,0-94.94,45.64,104.69,104.69,0,1,1,0,151.85A121.57,121.57,0,1,0,1707.6,415Z"/><path class="cls-4" d="M173.87,383.42l-2.3-11.27a3.34,3.34,0,0,0-2-2.4L159,365.26a3.33,3.33,0,0,1-.34-5.95l10-5.67a3.34,3.34,0,0,0,1.68-2.61l1-11.45a3.33,3.33,0,0,1,5.56-2.17l8.48,7.77a3.35,3.35,0,0,0,3,.79l11.2-2.59a3.33,3.33,0,0,1,3.78,4.62l-4.77,10.47a3.32,3.32,0,0,0,.18,3.09l5.92,9.86a3.32,3.32,0,0,1-3.23,5l-11.43-1.29a3.3,3.3,0,0,0-2.88,1.12l-7.55,8.68A3.32,3.32,0,0,1,173.87,383.42Z"/><path class="cls-4" d="M1761.13,138.88a1.71,1.71,0,0,1-1.4-.73l-3.37-4.76a2.73,2.73,0,0,0-2.22-1.15l-5.87.07a1.73,1.73,0,0,1-1.4-2.76l3.48-4.67a2.7,2.7,0,0,0,.4-2.5l-1.87-5.53a1.68,1.68,0,0,1,.23-1.55,1.71,1.71,0,0,1,1.39-.73,1.63,1.63,0,0,1,.57.1l5.52,1.87a2.88,2.88,0,0,0,.87.14,2.7,2.7,0,0,0,1.63-.54l4.68-3.48a1.66,1.66,0,0,1,1-.35,1.79,1.79,0,0,1,1.25.52,1.7,1.7,0,0,1,.48,1.23l-.07,5.83a2.73,2.73,0,0,0,1.15,2.26l4.76,3.37a1.72,1.72,0,0,1-.48,3l-5.57,1.73a2.71,2.71,0,0,0-1.79,1.8l-1.73,5.56A1.71,1.71,0,0,1,1761.13,138.88Z"/><path class="cls-4" d="M1764.79,112.81a1.3,1.3,0,0,1,.89.37,1.19,1.19,0,0,1,.34.87l-.07,5.83a3.27,3.27,0,0,0,1.36,2.68l4.76,3.36a1.21,1.21,0,0,1,.5,1.2,1.18,1.18,0,0,1-.84,1l-5.57,1.74A3.19,3.19,0,0,0,1764,132l-1.73,5.57a1.22,1.22,0,0,1-1.18.86,1.2,1.2,0,0,1-1-.52l-3.37-4.76a3.25,3.25,0,0,0-2.67-1.36h0l-5.85.07a1.23,1.23,0,0,1-1-2l3.49-4.67a3.2,3.2,0,0,0,.46-3l-1.87-5.53a1.22,1.22,0,0,1,.16-1.1,1.26,1.26,0,0,1,1-.52,1.18,1.18,0,0,1,.41.07l5.52,1.87a3,3,0,0,0,1,.17,3.2,3.2,0,0,0,1.93-.64l4.68-3.48a1.15,1.15,0,0,1,.72-.25m0-1a2.22,2.22,0,0,0-1.32.44l-4.68,3.49a2.19,2.19,0,0,1-1.33.44,2.45,2.45,0,0,1-.71-.11l-5.52-1.88a2.37,2.37,0,0,0-.73-.12,2.23,2.23,0,0,0-2.09,3l1.87,5.52a2.22,2.22,0,0,1-.33,2l-3.48,4.67a2.23,2.23,0,0,0,1.78,3.56h0l5.83-.07h0a2.21,2.21,0,0,1,1.81.94l3.37,4.76a2.22,2.22,0,0,0,3.94-.63l1.73-5.56a2.25,2.25,0,0,1,1.47-1.47l5.56-1.73a2.22,2.22,0,0,0,.63-3.94l-4.76-3.37a2.21,2.21,0,0,1-.94-1.84l.07-5.83a2.23,2.23,0,0,0-2.23-2.26Z"/><path class="cls-3" d="M1194.76,879.83a1.35,1.35,0,0,1-1-.42l-4.48-4.59a2.36,2.36,0,0,0-1.7-.72l-.4,0-6.32,1.09-.24,0a1.37,1.37,0,0,1-1.17-.67,1.34,1.34,0,0,1,0-1.34l3-5.68a2.4,2.4,0,0,0,0-2.21l-3-5.67a1.37,1.37,0,0,1,1.2-2l.24,0,6.32,1.08.4,0a2.39,2.39,0,0,0,1.7-.71l4.48-4.6a1.34,1.34,0,0,1,1-.41,1.36,1.36,0,0,1,1.37,1.18l.92,6.34a2.39,2.39,0,0,0,1.3,1.79l5.75,2.84a1.34,1.34,0,0,1,.77,1.23,1.36,1.36,0,0,1-.77,1.23l-5.75,2.84a2.38,2.38,0,0,0-1.3,1.78l-.92,6.35A1.37,1.37,0,0,1,1194.76,879.83Z"/><path class="cls-3" d="M1194.76,853.57a.87.87,0,0,1,.88.75l.92,6.34a2.86,2.86,0,0,0,1.57,2.17l5.75,2.84a.84.84,0,0,1,.49.78.86.86,0,0,1-.49.78l-5.75,2.84a2.84,2.84,0,0,0-1.57,2.16l-.92,6.35a.87.87,0,0,1-.88.74.82.82,0,0,1-.61-.26l-4.48-4.59a2.88,2.88,0,0,0-2.05-.87,2.63,2.63,0,0,0-.49,0l-6.32,1.08-.16,0a.87.87,0,0,1-.76-1.28l3-5.68a2.87,2.87,0,0,0,0-2.67l-3-5.68a.87.87,0,0,1,.76-1.28l.16,0,6.32,1.08a2.63,2.63,0,0,0,.49,0,2.88,2.88,0,0,0,2.05-.86l4.48-4.6a.82.82,0,0,1,.61-.26m0-1a1.84,1.84,0,0,0-1.33.57l-4.47,4.59a1.89,1.89,0,0,1-1.34.56,1.67,1.67,0,0,1-.32,0l-6.32-1.09-.33,0a1.88,1.88,0,0,0-1.65,2.75l3,5.68a1.85,1.85,0,0,1,0,1.74l-3,5.67a1.88,1.88,0,0,0,1.65,2.75l.33,0,6.32-1.08a1.66,1.66,0,0,1,.32,0,1.89,1.89,0,0,1,1.34.56l4.47,4.6a1.83,1.83,0,0,0,1.33.56,1.86,1.86,0,0,0,1.86-1.6l.93-6.35a1.89,1.89,0,0,1,1-1.41l5.75-2.83a1.87,1.87,0,0,0,0-3.36l-5.75-2.84a1.87,1.87,0,0,1-1-1.41l-.93-6.35a1.86,1.86,0,0,0-1.86-1.6Z"/><path class="cls-5" d="M1638.07,729.8a14.75,14.75,0,0,1-10.79-4.64l-.15-.16h-2.35l-.13.1a14.89,14.89,0,0,1-17.1,0l-.13-.1h-2.53l-.12.07c-5.26,3-12.37,4.73-20,4.73s-14.77-1.68-20-4.73l-.11-.07h-11.72l-.09,0a44.16,44.16,0,0,1-32.53.09l-.23-.1-.21.12a14.9,14.9,0,0,1-14.38,0l-.26-.14-.25.15a14.87,14.87,0,0,1-12.79,1.41l-.25-.09-.22.17a11.18,11.18,0,0,1-7,2.41,11.33,11.33,0,0,1-1.47-22.57l.27,0,.11-.25a15.08,15.08,0,0,1,2.93-4.18l.21-.2-.08-.28a28.68,28.68,0,0,1,25.56-36.37l.23,0,.14-.2a11.37,11.37,0,0,1,9.3-4.85,11.17,11.17,0,0,1,1.39.09l.37,0,.15-.32a26.58,26.58,0,0,1,34.39-13.32l.19.08.2-.08a28.71,28.71,0,0,1,37,13.82l.07.17.17.07a28.56,28.56,0,0,1,15.89,18.81l.17.65.57-.34a20.47,20.47,0,0,1,31,17.58,19.58,19.58,0,0,1-.25,3.15l-.06.4.38.14a14.68,14.68,0,0,1,4.73,3l.21.19.28-.08a11.11,11.11,0,0,1,3.39-.52,11.33,11.33,0,1,1-3.39,22.15l-.28-.09-.21.2A14.87,14.87,0,0,1,1638.07,729.8Z"/><path class="cls-5" d="M1569.77,644.82a28,28,0,0,1,25.31,15.81l.15.33.33.15a28,28,0,0,1,15.62,18.48l.34,1.29,1.14-.68a20,20,0,0,1,30,20.22l-.12.8.75.29a14.58,14.58,0,0,1,4.57,2.85l.43.4.55-.18a10.83,10.83,0,1,1,0,20.68l-.55-.18-.43.4a14.37,14.37,0,0,1-20.18-.66l-.29-.32h-2.73l-.26.19a14.38,14.38,0,0,1-16.52,0l-.26-.19h-2.82l-.24.14c-5.11,3-12.32,4.66-19.78,4.66s-14.67-1.7-19.78-4.66l-.23-.14h-12l-.19.09a43.66,43.66,0,0,1-32.14.09l-.45-.19-.42.23a14.39,14.39,0,0,1-13.9,0l-.51-.28-.5.31a14.39,14.39,0,0,1-12.36,1.36l-.52-.18-.43.34a10.83,10.83,0,1,1-8.08-19.27l.54-.07.24-.5a14.18,14.18,0,0,1,2.83-4l.41-.42-.16-.56a28.18,28.18,0,0,1,25.11-35.73l.48,0,.27-.39a10.87,10.87,0,0,1,8.89-4.64,10.25,10.25,0,0,1,1.33.09l.73.09.3-.66A26.08,26.08,0,0,1,1558,647.05l.39.17.39-.17a28,28,0,0,1,11-2.23m0-1a29.19,29.19,0,0,0-11.39,2.31,27.07,27.07,0,0,0-35,13.56,14.13,14.13,0,0,0-1.46-.09,11.83,11.83,0,0,0-9.71,5.07,29.17,29.17,0,0,0-26,37,15.59,15.59,0,0,0-3,4.32,11.83,11.83,0,1,0,8.83,21,15.37,15.37,0,0,0,13.22-1.45,15.41,15.41,0,0,0,14.86,0,44.61,44.61,0,0,0,32.93-.1h11.47c5.1,3,12.3,4.8,20.28,4.8s15.19-1.84,20.28-4.8h2.24a15.34,15.34,0,0,0,17.67,0h2a15.35,15.35,0,0,0,21.58.71,11.83,11.83,0,1,0,0-22.58,15.21,15.21,0,0,0-4.89-3,21.54,21.54,0,0,0,.25-3.23,21,21,0,0,0-31.71-18A29.25,29.25,0,0,0,1596,660.19a29.15,29.15,0,0,0-26.2-16.37Z"/><path class="cls-6" d="M1637.8,724a14.74,14.74,0,0,1-10.79-4.63l-.15-.16h-2.35l-.13.09a14.84,14.84,0,0,1-17.1,0l-.13-.09h-2.53l-.11.07c-5.26,3-12.38,4.72-20,4.72s-14.77-1.68-20-4.72l-.12-.07h-11.71l-.1,0a44.09,44.09,0,0,1-32.53.1l-.22-.1-.22.12a14.86,14.86,0,0,1-14.38,0l-.25-.14-.25.16a14.86,14.86,0,0,1-7.86,2.25,15,15,0,0,1-4.93-.84l-.26-.09-.22.17a11.34,11.34,0,0,1-18.31-8.93,11.35,11.35,0,0,1,9.86-11.23l.27,0,.12-.25a14.83,14.83,0,0,1,2.93-4.17l.2-.21-.08-.28A28.68,28.68,0,0,1,1512,659.34h.24l.13-.2a11.3,11.3,0,0,1,10.7-4.76l.36,0,.15-.33a26.58,26.58,0,0,1,34.39-13.31l.2.08.19-.08a28.68,28.68,0,0,1,37,13.82l.08.16.16.08a28.55,28.55,0,0,1,15.9,18.81l.17.64.57-.34a20.46,20.46,0,0,1,30.95,17.58,20.82,20.82,0,0,1-.24,3.16l-.06.39.37.15a14.72,14.72,0,0,1,4.73,2.95l.22.2.27-.09a11.49,11.49,0,0,1,3.4-.52,11.34,11.34,0,0,1,0,22.67,11.49,11.49,0,0,1-3.4-.52l-.27-.09-.22.2A14.8,14.8,0,0,1,1637.8,724Z"/><path class="cls-7" d="M1569.5,639a28,28,0,0,1,25.31,15.81l.16.32.32.15a28,28,0,0,1,15.62,18.49l.34,1.28,1.14-.68a20,20,0,0,1,30,20.23l-.12.79.75.29a14.21,14.21,0,0,1,4.57,2.86l.43.39.55-.17a10.84,10.84,0,1,1,0,20.67l-.55-.17-.43.39a14.37,14.37,0,0,1-20.18-.66l-.29-.31h-2.73l-.26.18a14.33,14.33,0,0,1-16.52,0l-.26-.18h-2.82l-.23.13c-5.11,3-12.32,4.66-19.78,4.66s-14.67-1.69-19.78-4.66l-.24-.13h-12l-.19.08a43.57,43.57,0,0,1-32.13.1l-.45-.2-.43.24a14.37,14.37,0,0,1-13.89,0l-.52-.29-.5.31a14.25,14.25,0,0,1-7.59,2.18,14.62,14.62,0,0,1-4.77-.81l-.51-.19-.43.34a10.72,10.72,0,0,1-6.68,2.3,10.83,10.83,0,0,1-1.41-21.57l.55-.07.23-.49a14.58,14.58,0,0,1,2.83-4l.41-.41-.16-.56a28.58,28.58,0,0,1-1-7.65A28.23,28.23,0,0,1,1512,659.84l.48,0,.27-.39a10.84,10.84,0,0,1,8.89-4.64,10.45,10.45,0,0,1,1.34.08l.72.09.31-.66a26.15,26.15,0,0,1,23.64-15.09,25.85,25.85,0,0,1,10.1,2l.39.16.39-.16a27.93,27.93,0,0,1,11-2.23m0-1a28.92,28.92,0,0,0-11.38,2.31,27.08,27.08,0,0,0-35,13.56,11.85,11.85,0,0,0-11.17,5,29.18,29.18,0,0,0-26,37,15.16,15.16,0,0,0-3,4.31,11.83,11.83,0,1,0,8.82,21.05,15.34,15.34,0,0,0,13.22-1.46,15.37,15.37,0,0,0,14.86,0,44.61,44.61,0,0,0,32.93-.1h11.48c5.09,3,12.29,4.79,20.28,4.79s15.18-1.84,20.28-4.79H1607a15.35,15.35,0,0,0,17.68,0h2a15.37,15.37,0,0,0,21.58.71,11.84,11.84,0,1,0,0-22.59,15.45,15.45,0,0,0-4.89-3,21.44,21.44,0,0,0,.25-3.23,21,21,0,0,0-31.71-18,29.24,29.24,0,0,0-16.17-19.14A29.17,29.17,0,0,0,1569.5,638Z"/><path class="cls-5" d="M1433.32,698.84c-9,0-17.45-2-23.67-5.59l-.11-.06h-2.94l-.13.09a17.65,17.65,0,0,1-20.27,0l-.13-.09h-2.71l-.15.15a17.61,17.61,0,0,1-24.75.81l-.21-.19-.28.08a13.46,13.46,0,1,1,0-25.68l.28.09.21-.2a17.43,17.43,0,0,1,5.61-3.5l.37-.15-.06-.39a24.6,24.6,0,0,1-.29-3.74,24.24,24.24,0,0,1,36.65-20.81l.57.34.17-.65a33.76,33.76,0,0,1,18.8-22.25l.17-.07.08-.16a33.92,33.92,0,0,1,43.69-16.35l.2.08.19-.08a31.44,31.44,0,0,1,40.68,15.75l.16.33.36-.05a13.67,13.67,0,0,1,1.66-.1,13.48,13.48,0,0,1,11,5.76l.13.2h.24a33.95,33.95,0,0,1,30.23,43l-.08.28.21.21a17.68,17.68,0,0,1,3.47,5l.11.24.27,0a13.46,13.46,0,0,1-1.74,26.8,13.32,13.32,0,0,1-8.29-2.86l-.22-.17-.26.09a17.68,17.68,0,0,1-15.16-1.67l-.25-.16-.26.14a17.63,17.63,0,0,1-17,0l-.22-.12-.22.1a52.13,52.13,0,0,1-38.45-.11l-.09,0h-13.78l-.11.06C1450.78,696.86,1442.37,698.84,1433.32,698.84Z"/><path class="cls-5" d="M1451,598.34a33.25,33.25,0,0,1,13,2.64l.39.16.39-.16a30.63,30.63,0,0,1,12-2.41,31,31,0,0,1,28,17.91l.31.66.72-.09a12.72,12.72,0,0,1,1.6-.1,13,13,0,0,1,10.63,5.55l.27.39.48,0a33.45,33.45,0,0,1,29.78,42.38l-.16.56.41.42a17,17,0,0,1,3.37,4.81l.24.49.54.07a13,13,0,0,1-1.68,25.81,12.85,12.85,0,0,1-8-2.76l-.43-.33-.51.18a17.19,17.19,0,0,1-14.74-1.63l-.5-.31-.51.29a17.16,17.16,0,0,1-16.56,0l-.43-.23-.45.19a51.61,51.61,0,0,1-38-.11l-.19-.08h-14l-.23.13c-6.06,3.51-14.59,5.52-23.43,5.52s-17.36-2-23.42-5.52l-.23-.13h-3.22l-.26.18a17.15,17.15,0,0,1-19.7,0l-.26-.18h-3.08l-.3.31a17.13,17.13,0,0,1-24,.79l-.43-.4-.55.18a13,13,0,1,1-3.88-25.33,12.73,12.73,0,0,1,3.88.6l.55.17.43-.39a17.1,17.1,0,0,1,5.45-3.41l.75-.29-.12-.79a23.74,23.74,0,0,1,35.61-24l1.14.68.34-1.29a33.25,33.25,0,0,1,18.52-21.92l.33-.15.15-.32a33.2,33.2,0,0,1,30-18.75m0-1a34.37,34.37,0,0,0-30.91,19.31A34.48,34.48,0,0,0,1401,639.23a24.74,24.74,0,0,0-37.41,21.24,25.11,25.11,0,0,0,.3,3.81,18.05,18.05,0,0,0-5.77,3.6,14.1,14.1,0,0,0-4.18-.64,14,14,0,0,0,0,27.92,13.79,13.79,0,0,0,4.18-.64,18.13,18.13,0,0,0,25.46-.83h2.34a18.15,18.15,0,0,0,20.84,0h2.64c6,3.48,14.51,5.65,23.92,5.65s17.92-2.17,23.93-5.65h13.53a52.62,52.62,0,0,0,38.84.11,18.16,18.16,0,0,0,17.53,0,18.18,18.18,0,0,0,15.6,1.72,14,14,0,1,0,10.41-24.83,18.19,18.19,0,0,0-3.57-5.09,34.44,34.44,0,0,0-30.67-43.65,13.91,13.91,0,0,0-13.17-5.86,31.94,31.94,0,0,0-41.33-16,34.31,34.31,0,0,0-13.43-2.72Z"/><path class="cls-6" d="M1433.64,692c-9.05,0-17.46-2-23.67-5.59l-.12-.06h-2.93l-.13.09a17.65,17.65,0,0,1-20.27,0l-.13-.09h-2.71l-.15.15a17.62,17.62,0,0,1-24.76.81l-.21-.19-.28.08a13.46,13.46,0,1,1,0-25.68l.28.08.21-.19a17.43,17.43,0,0,1,5.61-3.5l.38-.15-.06-.4a24.22,24.22,0,0,1,23.94-28,24.21,24.21,0,0,1,12.42,3.42l.57.34.17-.65a33.76,33.76,0,0,1,18.8-22.25l.16-.07.08-.16a33.93,33.93,0,0,1,43.7-16.35l.19.08.2-.08a31.44,31.44,0,0,1,40.68,15.75l.15.33.36-.05a13.79,13.79,0,0,1,1.66-.1,13.48,13.48,0,0,1,11,5.76l.14.2h.24a33.91,33.91,0,0,1,30.22,43l-.08.28.21.2a18,18,0,0,1,3.47,5l.12.25.27,0a13.46,13.46,0,0,1-1.75,26.8,13.32,13.32,0,0,1-8.29-2.86l-.22-.17-.25.09a17.7,17.7,0,0,1-15.17-1.67l-.25-.16-.25.14a17.65,17.65,0,0,1-17,0l-.21-.12-.23.1a52.23,52.23,0,0,1-38.44-.11l-.1,0h-13.77l-.12.06C1451.09,690,1442.69,692,1433.64,692Z"/><path class="cls-7" d="M1451.31,591.47a33.2,33.2,0,0,1,13,2.64l.39.16.39-.16a30.7,30.7,0,0,1,12-2.41,31,31,0,0,1,28.05,17.91l.31.66.72-.09a12.84,12.84,0,0,1,1.6-.1,13,13,0,0,1,10.63,5.55l.28.39.47,0a33.41,33.41,0,0,1,29.78,42.38l-.16.56.42.42a17.18,17.18,0,0,1,3.37,4.81l.23.49.54.07a13,13,0,0,1-1.68,25.81,12.84,12.84,0,0,1-8-2.76l-.43-.34-.52.19a17.17,17.17,0,0,1-14.73-1.63l-.5-.31-.52.29a17.16,17.16,0,0,1-16.56,0l-.43-.23-.44.19a51.74,51.74,0,0,1-38-.11l-.2-.08h-14l-.23.13c-6,3.51-14.59,5.52-23.42,5.52s-17.37-2-23.42-5.52l-.24-.13h-3.22l-.26.18a17.14,17.14,0,0,1-19.69,0l-.26-.18h-3.09l-.29.31a17.14,17.14,0,0,1-24.06.79l-.42-.4-.56.18a13,13,0,1,1-3.88-25.33,12.73,12.73,0,0,1,3.88.6l.56.17.42-.39a17.21,17.21,0,0,1,5.45-3.41l.75-.29-.12-.79a23.75,23.75,0,0,1,35.61-24l1.14.69.34-1.29a33.23,33.23,0,0,1,18.52-21.92l.33-.15.16-.32a33.18,33.18,0,0,1,30-18.75m0-1a34.38,34.38,0,0,0-30.92,19.31,34.48,34.48,0,0,0-19.08,22.58,24.73,24.73,0,0,0-37.4,21.24,25.12,25.12,0,0,0,.29,3.81,18.16,18.16,0,0,0-5.77,3.6,14,14,0,1,0,0,26.64,18.13,18.13,0,0,0,25.46-.83h2.34a18.16,18.16,0,0,0,20.85,0h2.63c6,3.48,14.51,5.65,23.93,5.65s17.91-2.17,23.92-5.65h13.54a52.75,52.75,0,0,0,38.84.11,18.16,18.16,0,0,0,17.53,0,18.15,18.15,0,0,0,15.59,1.72,14,14,0,1,0,10.41-24.83,18,18,0,0,0-3.57-5.09,34.4,34.4,0,0,0-30.67-43.65,13.91,13.91,0,0,0-13.17-5.86,31.94,31.94,0,0,0-41.33-16,34.26,34.26,0,0,0-13.42-2.72Z"/><path class="cls-5" d="M657.48,539.14a13,13,0,0,1-9.47-4.07l-.15-.16h-2.12l-.13.09a13,13,0,0,1-15,0l-.13-.09h-2.26l-.12.07c-4.63,2.68-10.89,4.16-17.63,4.16s-13-1.48-17.63-4.16l-.12-.07H582.35l-.09,0a38.86,38.86,0,0,1-28.64.09l-.22-.1-.22.12a13.1,13.1,0,0,1-12.62,0l-.25-.14-.25.15a13,13,0,0,1-11.23,1.24l-.26-.09-.21.17A9.93,9.93,0,1,1,521,518.7l.27,0,.11-.24a13.09,13.09,0,0,1,2.58-3.67l.2-.21-.08-.28a25.23,25.23,0,0,1,22.48-32l.24,0,.14-.19A9.93,9.93,0,0,1,555,477.8a10.54,10.54,0,0,1,1.22.08l.36,0,.16-.32A23.44,23.44,0,0,1,578,464.07a23.15,23.15,0,0,1,9,1.82l.2.08.19-.08A25.22,25.22,0,0,1,619.91,478l.08.17.17.07a25.13,25.13,0,0,1,14,16.55l.17.64.57-.34a18,18,0,0,1,27.2,15.45,18.49,18.49,0,0,1-.21,2.78l-.06.39.37.15a13,13,0,0,1,4.16,2.59l.21.2.28-.09a9.93,9.93,0,1,1,0,19l-.28-.09-.21.2A13,13,0,0,1,657.48,539.14Z"/><path class="cls-5" d="M597.25,464.39a24.56,24.56,0,0,1,22.21,13.87l.16.33.33.15A24.6,24.6,0,0,1,633.65,495l.34,1.28,1.14-.68a17.49,17.49,0,0,1,26.24,17.72l-.12.79.75.29a12.72,12.72,0,0,1,4,2.5l.42.39.55-.17a9.43,9.43,0,1,1,0,18l-.55-.17-.42.39a12.54,12.54,0,0,1-17.63-.58l-.3-.31h-2.49l-.26.18a12.51,12.51,0,0,1-14.43,0l-.26-.18h-2.56l-.23.14c-4.49,2.6-10.82,4.09-17.38,4.09s-12.89-1.49-17.38-4.09l-.23-.14h-10.6l-.19.09a38.41,38.41,0,0,1-28.24.08l-.45-.2-.43.24a12.57,12.57,0,0,1-12.13,0l-.52-.28-.5.31A12.53,12.53,0,0,1,529,535.82l-.52-.18-.43.33a9.43,9.43,0,1,1-7-16.78l.54-.07.24-.49a12.56,12.56,0,0,1,2.47-3.53l.41-.41-.16-.56a24.74,24.74,0,0,1,22-31.36l.47,0,.28-.39a9.43,9.43,0,0,1,7.73-4,9.59,9.59,0,0,1,1.17.08l.72.09.31-.66a22.88,22.88,0,0,1,29.6-11.46l.39.16.39-.16a24.47,24.47,0,0,1,9.64-2m0-1a25.83,25.83,0,0,0-10,2,23.91,23.91,0,0,0-30.89,12,10.9,10.9,0,0,0-1.29-.08,10.4,10.4,0,0,0-8.55,4.47,25.71,25.71,0,0,0-23.89,25.64,26,26,0,0,0,1,7,13.73,13.73,0,0,0-2.67,3.8,10.43,10.43,0,1,0,7.78,18.56,13.53,13.53,0,0,0,11.66-1.28,13.61,13.61,0,0,0,13.1,0,37.31,37.31,0,0,0,14.43,2.73,36.9,36.9,0,0,0,14.61-2.82h10.12c4.49,2.61,10.84,4.23,17.88,4.23s13.39-1.62,17.88-4.23h2a13.54,13.54,0,0,0,15.59,0h1.74a13.56,13.56,0,0,0,19,.63,10.43,10.43,0,1,0,0-19.92,13.6,13.6,0,0,0-4.32-2.69,17.87,17.87,0,0,0,.22-2.85,18.49,18.49,0,0,0-28-15.88,25.77,25.77,0,0,0-14.26-16.87,25.71,25.71,0,0,0-23.11-14.44Z"/><path class="cls-5" d="M98.64,1016.81a23.18,23.18,0,0,1-11.27-2.66l-.11-.06H85.7l-.13.09a8.25,8.25,0,0,1-9.46,0l-.13-.09h-1.5l-.15.15a8.13,8.13,0,0,1-6,2.57,8.22,8.22,0,0,1-5.59-2.19l-.21-.2-.28.09a6.12,6.12,0,0,1-1.86.28,6.22,6.22,0,1,1,0-12.43,6.13,6.13,0,0,1,1.86.29l.28.08.21-.2a8.48,8.48,0,0,1,2.62-1.63l.38-.14-.06-.4A11.38,11.38,0,0,1,77,987.2a11.31,11.31,0,0,1,5.84,1.61l.58.34.16-.64A16,16,0,0,1,92.47,978l.16-.08.08-.16a16.07,16.07,0,0,1,20.7-7.74l.19.08.2-.08a14.7,14.7,0,0,1,5.75-1.16A14.93,14.93,0,0,1,133,977.44l.15.33.36,0a6.51,6.51,0,0,1,.77,0,6.22,6.22,0,0,1,5.1,2.66l.13.19.24,0a16.1,16.1,0,0,1,14.92,16,16.38,16.38,0,0,1-.6,4.36l-.08.28.2.21a7.91,7.91,0,0,1,1.62,2.31l.12.25.27,0a6.22,6.22,0,1,1-4.64,11.06l-.21-.17-.26.09a8.16,8.16,0,0,1-7.07-.78l-.25-.15-.26.14a8.29,8.29,0,0,1-4,1,8.16,8.16,0,0,1-4-1l-.22-.12-.22.1a24.86,24.86,0,0,1-18.3,0l-.09,0H110l-.11.06A23.17,23.17,0,0,1,98.64,1016.81Z"/><path class="cls-5" d="M107.14,969.22a15.35,15.35,0,0,1,6.07,1.23l.39.16.39-.16a14.27,14.27,0,0,1,5.56-1.12,14.42,14.42,0,0,1,13,8.32l.31.66.72-.09a5.85,5.85,0,0,1,.71,0,5.73,5.73,0,0,1,4.69,2.44l.27.4.48,0a15.6,15.6,0,0,1,14.45,15.51,15.81,15.81,0,0,1-.58,4.23l-.16.56.41.41a7.65,7.65,0,0,1,1.52,2.17l.23.5.55.07a5.71,5.71,0,1,1-4.27,10.17l-.43-.34-.52.18a7.65,7.65,0,0,1-2.56.44,7.74,7.74,0,0,1-4.08-1.17l-.5-.31-.51.28a7.71,7.71,0,0,1-7.47,0l-.43-.23-.45.19a24.34,24.34,0,0,1-17.9-.05l-.19-.08h-7l-.23.13a24.7,24.7,0,0,1-22,0l-.24-.13H85.54l-.26.18a7.74,7.74,0,0,1-8.88,0l-.26-.18H74.27l-.3.31a7.72,7.72,0,0,1-10.85.35l-.42-.39-.55.17a5.56,5.56,0,0,1-1.72.26,5.72,5.72,0,0,1,0-11.43,5.88,5.88,0,0,1,1.72.26l.55.18.42-.4a7.76,7.76,0,0,1,2.46-1.53l.75-.29-.12-.8a10.47,10.47,0,0,1-.13-1.68,10.9,10.9,0,0,1,16.49-9.36l1.14.68.34-1.29a15.52,15.52,0,0,1,8.62-10.21l.33-.15.16-.32a15.45,15.45,0,0,1,14-8.73m0-1a16.55,16.55,0,0,0-14.88,9.29,16.59,16.59,0,0,0-9.18,10.87,11.9,11.9,0,0,0-18,10.22,12.35,12.35,0,0,0,.14,1.84,8.9,8.9,0,0,0-2.78,1.73,6.71,6.71,0,1,0,0,12.82,8.73,8.73,0,0,0,12.26-.4h1.12a8.75,8.75,0,0,0,10,0h1.27a23.57,23.57,0,0,0,11.52,2.72,23.53,23.53,0,0,0,11.51-2.72h6.51a25.38,25.38,0,0,0,18.7,0,8.63,8.63,0,0,0,4.2,1.08,8.72,8.72,0,0,0,4.23-1.09,8.69,8.69,0,0,0,7.51.82,6.63,6.63,0,0,0,4.13,1.43,6.71,6.71,0,0,0,.88-13.37,8.66,8.66,0,0,0-1.72-2.45,16.56,16.56,0,0,0-14.76-21,6.71,6.71,0,0,0-5.51-2.87,5.69,5.69,0,0,0-.83.05,15.36,15.36,0,0,0-19.89-7.7,16.53,16.53,0,0,0-6.46-1.31Z"/><path class="cls-6" d="M98.79,1013.5a23.25,23.25,0,0,1-11.26-2.65l-.12-.07H85.85l-.13.09a8.21,8.21,0,0,1-9.46,0l-.13-.09h-1.5l-.14.16a8.24,8.24,0,0,1-11.56.37l-.21-.19-.27.08a6.22,6.22,0,1,1,0-11.86l.27.08.22-.19a8,8,0,0,1,2.61-1.63l.38-.15-.06-.4A11.4,11.4,0,0,1,83,985.5l.57.34.17-.64a16,16,0,0,1,8.9-10.54l.16-.07.08-.16a16.07,16.07,0,0,1,20.7-7.75l.19.09.2-.09a14.9,14.9,0,0,1,19.24,7.45l.15.33.36,0a6.49,6.49,0,0,1,.77,0,6.22,6.22,0,0,1,5.1,2.66l.13.2h.24a16.06,16.06,0,0,1,14.32,20.37l-.08.29.2.2a8,8,0,0,1,1.62,2.31l.12.25.27,0a6.21,6.21,0,0,1-.81,12.37,6.09,6.09,0,0,1-3.82-1.32l-.22-.17-.26.1a8.4,8.4,0,0,1-2.72.46,8.21,8.21,0,0,1-4.35-1.24l-.25-.16-.26.14a8.15,8.15,0,0,1-4,1,8.27,8.27,0,0,1-4-1l-.22-.12-.22.09a24.86,24.86,0,0,1-18.3,0l-.09,0h-6.75l-.12.07A23.28,23.28,0,0,1,98.79,1013.5Z"/><path class="cls-7" d="M107.29,965.91a15.53,15.53,0,0,1,6.07,1.23l.39.17.39-.17A14.26,14.26,0,0,1,119.7,966a14.4,14.4,0,0,1,13,8.31l.31.66.72-.09a5.85,5.85,0,0,1,.71,0,5.72,5.72,0,0,1,4.69,2.45l.27.39.48,0a15.6,15.6,0,0,1,14.45,15.51,15.81,15.81,0,0,1-.58,4.23l-.16.56.41.42a7.65,7.65,0,0,1,1.52,2.17l.24.49.54.07a5.72,5.72,0,0,1-.75,11.39,5.66,5.66,0,0,1-3.52-1.22l-.43-.34-.51.18a7.71,7.71,0,0,1-6.65-.73l-.5-.31-.51.29a7.78,7.78,0,0,1-7.47,0l-.43-.24-.45.19a24.34,24.34,0,0,1-17.9,0l-.19-.08h-7l-.23.13a24.7,24.7,0,0,1-22,0l-.24-.13H85.69l-.26.18a7.7,7.7,0,0,1-8.88,0l-.26-.18H74.42l-.3.31a7.65,7.65,0,0,1-5.6,2.41,7.75,7.75,0,0,1-5.25-2l-.42-.4-.55.18a5.88,5.88,0,0,1-1.72.26,5.72,5.72,0,0,1,0-11.44,5.57,5.57,0,0,1,1.72.27l.55.17.42-.39a7.62,7.62,0,0,1,2.46-1.54l.75-.29-.12-.79a10.6,10.6,0,0,1-.13-1.69,10.9,10.9,0,0,1,16.49-9.36l1.14.68.34-1.28a15.46,15.46,0,0,1,8.63-10.21l.32-.15.16-.33a15.47,15.47,0,0,1,14-8.73m0-1a16.54,16.54,0,0,0-14.88,9.3,16.58,16.58,0,0,0-9.18,10.86,11.9,11.9,0,0,0-18,10.22,12.35,12.35,0,0,0,.14,1.84,8.74,8.74,0,0,0-2.77,1.73,6.72,6.72,0,1,0,0,12.82,8.72,8.72,0,0,0,12.25-.4H76a8.72,8.72,0,0,0,10,0h1.26A23.49,23.49,0,0,0,98.79,1014a23.42,23.42,0,0,0,11.51-2.72h6.51a25.38,25.38,0,0,0,18.7.05,8.73,8.73,0,0,0,8.43,0,8.75,8.75,0,0,0,7.51.83,6.72,6.72,0,1,0,5-11.95,9,9,0,0,0-1.72-2.45,16.56,16.56,0,0,0-14.76-21,6.73,6.73,0,0,0-5.51-2.87,7.55,7.55,0,0,0-.83,0,15.4,15.4,0,0,0-19.89-7.7,16.53,16.53,0,0,0-6.46-1.31Z"/><path class="cls-4" d="M466.24,848.83l5.8-3.67a2,2,0,0,0,.92-1.6l.26-6.86a2,2,0,0,1,3.25-1.45l5.28,4.38a2,2,0,0,0,1.81.39l6.6-1.87a2,2,0,0,1,2.38,2.64L490,847.17a2,2,0,0,0,.19,1.83l3.82,5.71a2,2,0,0,1-1.78,3.08l-6.85-.44a2,2,0,0,0-1.68.75l-4.25,5.39a2,2,0,0,1-3.48-.73l-1.69-6.65a2,2,0,0,0-1.24-1.37l-6.44-2.38A2,2,0,0,1,466.24,848.83Z"/><path class="cls-4" d="M921.28,978.85l-.19,6.86a2,2,0,0,0,.82,1.66l5.54,4a2,2,0,0,1-.61,3.5l-6.58,2a2,2,0,0,0-1.32,1.28l-2.13,6.52a2,2,0,0,1-3.52.51l-3.88-5.66a2,2,0,0,0-1.64-.86h-6.86a2,2,0,0,1-1.57-3.2l4.19-5.43a2,2,0,0,0,.31-1.82l-2.11-6.53a2,2,0,0,1,2.55-2.48l6.47,2.3a2,2,0,0,0,1.83-.27l5.55-4A2,2,0,0,1,921.28,978.85Z"/><circle class="cls-1" cx="863.43" cy="921.21" r="7.66"/><path class="cls-4" d="M1270.64,140.28a.82.82,0,0,1-.68-.36l-5.09-7.2a1.87,1.87,0,0,0-1.5-.77l-8.84.11a.82.82,0,0,1-.76-.46.81.81,0,0,1,.08-.88l5.27-7.06a1.86,1.86,0,0,0,.27-1.69l-2.83-8.35a.78.78,0,0,1,.11-.75.82.82,0,0,1,.67-.36.92.92,0,0,1,.28,0l8.35,2.83a2,2,0,0,0,.59.1,1.82,1.82,0,0,0,1.1-.37l7.06-5.27a.84.84,0,0,1,.5-.17.82.82,0,0,1,.84.85l-.11,8.81a1.84,1.84,0,0,0,.77,1.53l7.2,5.09a.79.79,0,0,1,.34.81.82.82,0,0,1-.57.67l-8.42,2.62a1.83,1.83,0,0,0-1.21,1.21l-2.62,8.42A.83.83,0,0,1,1270.64,140.28Z"/><path class="cls-4" d="M1275.22,110.18a.36.36,0,0,1,.25.11.32.32,0,0,1,.09.23l-.11,8.82a2.36,2.36,0,0,0,1,1.94l7.2,5.09a.33.33,0,0,1-.09.59l-8.42,2.62a2.33,2.33,0,0,0-1.54,1.54l-2.62,8.42a.32.32,0,0,1-.32.24.29.29,0,0,1-.27-.15l-5.09-7.2a2.37,2.37,0,0,0-1.94-1h0l-8.82.11a.32.32,0,0,1-.3-.19.31.31,0,0,1,0-.35l5.27-7.06a2.33,2.33,0,0,0,.34-2.15l-2.83-8.35a.32.32,0,0,1,0-.3.33.33,0,0,1,.27-.15l.12,0,8.35,2.83a2.29,2.29,0,0,0,2.15-.34l7.06-5.27a.31.31,0,0,1,.2-.07m0-1a1.31,1.31,0,0,0-.8.27l-7.06,5.27a1.4,1.4,0,0,1-.8.27,1.26,1.26,0,0,1-.43-.08l-8.35-2.83a1.39,1.39,0,0,0-.44-.07,1.34,1.34,0,0,0-1.26,1.77l2.83,8.35a1.33,1.33,0,0,1-.19,1.23l-5.27,7.06a1.34,1.34,0,0,0,1.07,2.14h0l8.81-.11h0a1.35,1.35,0,0,1,1.09.56l5.09,7.2a1.33,1.33,0,0,0,2.37-.38l2.62-8.41a1.34,1.34,0,0,1,.88-.88l8.41-2.62a1.34,1.34,0,0,0,.38-2.37l-7.2-5.09a1.32,1.32,0,0,1-.56-1.11l.11-8.81a1.34,1.34,0,0,0-1.34-1.36Z"/><path class="cls-8" d="M779.11,368.73l8.35,2.83a1.33,1.33,0,0,0,1.22-.19l7.07-5.28a1.34,1.34,0,0,1,2.14,1.09l-.12,8.82a1.36,1.36,0,0,0,.57,1.11l7.2,5.09a1.34,1.34,0,0,1-.38,2.37l-8.42,2.61a1.34,1.34,0,0,0-.88.88l-2.61,8.42a1.34,1.34,0,0,1-2.37.38l-5.09-7.2a1.36,1.36,0,0,0-1.11-.57l-8.82.12a1.34,1.34,0,0,1-1.09-2.14l5.28-7.07a1.35,1.35,0,0,0,.19-1.23l-2.83-8.35A1.34,1.34,0,0,1,779.11,368.73Z"/><path class="cls-8" d="M1741.81,692.33l8.35,2.83a1.33,1.33,0,0,0,1.23-.2l7.06-5.27a1.34,1.34,0,0,1,2.14,1.09l-.11,8.81a1.32,1.32,0,0,0,.56,1.11l7.2,5.09a1.34,1.34,0,0,1-.38,2.37l-8.41,2.62a1.34,1.34,0,0,0-.88.88l-2.62,8.42a1.34,1.34,0,0,1-2.37.37l-5.09-7.19a1.33,1.33,0,0,0-1.11-.57l-8.82.11a1.33,1.33,0,0,1-1.08-2.13l5.27-7.07a1.32,1.32,0,0,0,.19-1.23l-2.83-8.35A1.34,1.34,0,0,1,1741.81,692.33Z"/><path class="cls-8" d="M1817.74,733.32l8.35,2.84a1.35,1.35,0,0,0,1.23-.2l7.07-5.27a1.34,1.34,0,0,1,2.14,1.09l-.12,8.81a1.35,1.35,0,0,0,.57,1.11l7.2,5.09a1.34,1.34,0,0,1-.38,2.37l-8.42,2.62a1.34,1.34,0,0,0-.88.88l-2.62,8.42a1.33,1.33,0,0,1-2.36.37l-5.09-7.2a1.33,1.33,0,0,0-1.11-.56l-8.82.11a1.34,1.34,0,0,1-1.09-2.14l5.28-7.06a1.35,1.35,0,0,0,.19-1.23l-2.83-8.35A1.34,1.34,0,0,1,1817.74,733.32Z"/><path class="cls-3" d="M96.84,741.38a2.81,2.81,0,0,1-2.78-2.26l-2.3-11.27a3.84,3.84,0,0,0-2.25-2.76L78.92,720.6a2.83,2.83,0,0,1-.29-5.06l10-5.67a3.82,3.82,0,0,0,1.93-3l1-11.46a2.83,2.83,0,0,1,2.84-2.58,2.72,2.72,0,0,1,1.88.74l8.49,7.77a3.8,3.8,0,0,0,2.58,1,4.12,4.12,0,0,0,.86-.09l11.21-2.59a3,3,0,0,1,.66-.08,2.78,2.78,0,0,1,2.35,1.31,2.75,2.75,0,0,1,.19,2.69l-4.76,10.47a3.84,3.84,0,0,0,.2,3.56l5.92,9.86a2.83,2.83,0,0,1-2.4,4.28l-.34,0-11.43-1.3a3.1,3.1,0,0,0-.43,0,3.78,3.78,0,0,0-2.88,1.31L99,740.41A2.77,2.77,0,0,1,96.84,741.38Z"/><path class="cls-3" d="M94.4,693.34A2.26,2.26,0,0,1,96,694l8.48,7.77a4.33,4.33,0,0,0,2.92,1.13,4,4,0,0,0,1-.11l11.21-2.58a2.59,2.59,0,0,1,.55-.07,2.34,2.34,0,0,1,2.09,3.3l-4.77,10.46a4.33,4.33,0,0,0,.23,4l5.92,9.86a2.33,2.33,0,0,1-2,3.53l-.28,0-11.43-1.3a4,4,0,0,0-.49,0,4.33,4.33,0,0,0-3.26,1.48l-7.55,8.68a2.27,2.27,0,0,1-1.74.8A2.31,2.31,0,0,1,94.55,739l-2.3-11.27a4.32,4.32,0,0,0-2.55-3.12l-10.58-4.49a2.31,2.31,0,0,1-1.42-2A2.27,2.27,0,0,1,78.88,716l10-5.67a4.36,4.36,0,0,0,2.18-3.39l1-11.46a2.32,2.32,0,0,1,2.33-2.12m0-1a3.33,3.33,0,0,0-3.33,3l-1,11.46a3.35,3.35,0,0,1-1.67,2.61l-10,5.67a3.32,3.32,0,0,0,.34,5.95l10.58,4.49a3.34,3.34,0,0,1,2,2.4l2.3,11.27a3.33,3.33,0,0,0,5.77,1.52l7.54-8.68a3.34,3.34,0,0,1,2.51-1.14,2.42,2.42,0,0,1,.38,0l11.43,1.29.39,0a3.33,3.33,0,0,0,2.83-5l-5.92-9.86a3.35,3.35,0,0,1-.18-3.09l4.77-10.47a3.33,3.33,0,0,0-3-4.71,3.44,3.44,0,0,0-.77.09l-11.21,2.59a3.19,3.19,0,0,1-.75.08,3.3,3.3,0,0,1-2.24-.87l-8.49-7.77a3.28,3.28,0,0,0-2.23-.87Z"/><path class="cls-3" d="M530.92,506.83a2.82,2.82,0,0,1-2.79-2.26l-2.3-11.27a3.84,3.84,0,0,0-2.25-2.76L513,486.05a2.83,2.83,0,0,1-.28-5.06l10-5.67a3.83,3.83,0,0,0,1.92-3l1-11.46a2.81,2.81,0,0,1,2.83-2.58,2.76,2.76,0,0,1,1.89.74l8.48,7.77a3.81,3.81,0,0,0,2.58,1,4.12,4.12,0,0,0,.86-.09l11.21-2.59a3,3,0,0,1,.66-.08,2.83,2.83,0,0,1,2.55,4l-4.77,10.47a3.84,3.84,0,0,0,.2,3.56l5.93,9.86a2.83,2.83,0,0,1-2.41,4.28l-.33,0-11.43-1.3a3.24,3.24,0,0,0-.44,0,3.84,3.84,0,0,0-2.88,1.31L533,505.86A2.74,2.74,0,0,1,530.92,506.83Z"/><path class="cls-3" d="M528.48,458.79a2.25,2.25,0,0,1,1.55.61l8.48,7.77a4.33,4.33,0,0,0,2.92,1.13,4,4,0,0,0,1-.11l11.2-2.58a2.67,2.67,0,0,1,.55-.07,2.33,2.33,0,0,1,1.94,1.08,2.28,2.28,0,0,1,.15,2.22l-4.76,10.47a4.29,4.29,0,0,0,.23,4l5.92,9.86a2.33,2.33,0,0,1-2,3.53l-.29,0L544,495.39l-.48,0a4.33,4.33,0,0,0-3.27,1.48l-7.55,8.68a2.25,2.25,0,0,1-1.73.8,2.32,2.32,0,0,1-2.3-1.86l-2.3-11.27a4.33,4.33,0,0,0-2.54-3.12l-10.59-4.49a2.33,2.33,0,0,1-.24-4.16l10-5.67a4.34,4.34,0,0,0,2.18-3.39l1-11.46a2.34,2.34,0,0,1,2.34-2.12m0-1a3.31,3.31,0,0,0-3.33,3l-1,11.45a3.33,3.33,0,0,1-1.67,2.61l-10,5.67a3.32,3.32,0,0,0,.34,5.95L523.39,491a3.33,3.33,0,0,1,2,2.4l2.3,11.27a3.32,3.32,0,0,0,3.28,2.66,3.27,3.27,0,0,0,2.49-1.14l7.55-8.68a3.31,3.31,0,0,1,2.51-1.14,2.3,2.3,0,0,1,.37,0l11.43,1.29a2.69,2.69,0,0,0,.4,0,3.32,3.32,0,0,0,2.82-5l-5.92-9.86a3.32,3.32,0,0,1-.17-3.09l4.76-10.47a3.33,3.33,0,0,0-3-4.71,3.44,3.44,0,0,0-.77.09l-11.21,2.59a3.19,3.19,0,0,1-.75.08,3.3,3.3,0,0,1-2.24-.87l-8.49-7.77a3.27,3.27,0,0,0-2.22-.87Z"/><path class="cls-6" d="M648.12,530.68a12.22,12.22,0,0,1-8.83-3.68l-.15-.15h-2l-.13.09a12.49,12.49,0,0,1-14,0l-.13-.09h-2.13l-.11.06c-4.33,2.43-10.18,3.77-16.49,3.77s-12.15-1.34-16.48-3.77l-.11-.06h-9.7l-.09,0A37.32,37.32,0,0,1,551,527l-.21-.09-.21.11a12.52,12.52,0,0,1-11.79,0l-.25-.14-.24.15a12.52,12.52,0,0,1-10.49,1.12l-.25-.09-.21.16a9.37,9.37,0,0,1-5.71,1.91,8.95,8.95,0,0,1-1.21-17.84l.27,0,.12-.24a11.7,11.7,0,0,1,2.4-3.31l.21-.21-.08-.29a22.33,22.33,0,0,1-.88-6.2c0-11.93,9.61-21.93,21.88-22.76l.23,0,.14-.19a9.37,9.37,0,0,1,7.6-3.84,8.94,8.94,0,0,1,1.14.07l.36,0,.15-.32a22,22,0,0,1,19.8-12.25,22.33,22.33,0,0,1,8.46,1.65l.19.08.19-.08a24,24,0,0,1,9.2-1.81A23.49,23.49,0,0,1,613,475.34l.08.16.17.07a22.94,22.94,0,0,1,13,15l.17.63.57-.32a17.09,17.09,0,0,1,8.6-2.3c9.27,0,16.8,7.3,16.8,16.27a16,16,0,0,1-.2,2.5l-.06.41.38.14a12.38,12.38,0,0,1,3.88,2.34l.21.19.27-.08a9.58,9.58,0,0,1,2.77-.41,9,9,0,1,1,0,17.93,9.58,9.58,0,0,1-2.77-.41l-.27-.08-.21.18A12.35,12.35,0,0,1,648.12,530.68Z"/><path class="cls-7" d="M591.79,463a23,23,0,0,1,20.72,12.54l.17.32.32.15a22.41,22.41,0,0,1,12.78,14.66l.34,1.25,1.13-.65a16.69,16.69,0,0,1,8.36-2.23,16.05,16.05,0,0,1,16.29,15.77,15.09,15.09,0,0,1-.19,2.42l-.13.81.76.29a11.58,11.58,0,0,1,3.72,2.25l.42.37.54-.16a9,9,0,0,1,2.63-.39,8.47,8.47,0,1,1,0,16.93A9,9,0,0,1,657,527l-.54-.17-.42.38a12,12,0,0,1-16.42-.52l-.29-.3H637l-.25.17a12,12,0,0,1-13.45,0l-.25-.17h-2.42l-.23.13c-4.19,2.35-10.11,3.7-16.24,3.7s-12-1.35-16.23-3.7l-.23-.13h-9.93l-.19.08a36.8,36.8,0,0,1-26.38.07l-.44-.18-.42.22a12,12,0,0,1-11.31,0l-.5-.27-.49.29a12,12,0,0,1-6.19,1.72,12.19,12.19,0,0,1-3.88-.64l-.5-.18-.42.33a8.89,8.89,0,0,1-5.41,1.8,8.45,8.45,0,0,1-1.14-16.85l.53-.07.24-.48a11.38,11.38,0,0,1,2.3-3.18l.43-.41-.17-.58A21.7,21.7,0,0,1,523,502c0-11.67,9.4-21.45,21.41-22.26l.47,0,.28-.38a8.84,8.84,0,0,1,7.19-3.64,8,8,0,0,1,1.08.07l.72.08.31-.64a21.45,21.45,0,0,1,19.34-12,21.75,21.75,0,0,1,8.27,1.61l.38.16.38-.16a23.61,23.61,0,0,1,9-1.77m0-1a24.6,24.6,0,0,0-9.39,1.85,22.76,22.76,0,0,0-8.65-1.69,22.38,22.38,0,0,0-20.25,12.53,11.73,11.73,0,0,0-1.2-.07,9.84,9.84,0,0,0-8,4.05C531.81,479.54,522,489.63,522,502a22.54,22.54,0,0,0,.9,6.34,12.2,12.2,0,0,0-2.5,3.45,9.45,9.45,0,0,0,1.27,18.84,9.9,9.9,0,0,0,6-2,13,13,0,0,0,10.91-1.16,13,13,0,0,0,12.25,0,37.85,37.85,0,0,0,27.16-.08h9.47c4.2,2.36,10.14,3.83,16.72,3.83s12.53-1.47,16.73-3.83h1.85a13,13,0,0,0,14.57,0h1.64a13,13,0,0,0,17.8.57,10.06,10.06,0,0,0,2.92.43,9.47,9.47,0,1,0,0-18.93,10.06,10.06,0,0,0-2.92.43,12.9,12.9,0,0,0-4-2.44,16.84,16.84,0,0,0,.2-2.58,17,17,0,0,0-17.29-16.77,17.63,17.63,0,0,0-8.86,2.36,23.6,23.6,0,0,0-13.34-15.31A24.13,24.13,0,0,0,591.79,462Z"/><path class="cls-4" d="M1542.6,242.2a.82.82,0,0,1-.68-.36l-5.09-7.19a1.82,1.82,0,0,0-1.5-.78l-8.84.11a.84.84,0,0,1-.68-1.33l5.27-7.07a1.8,1.8,0,0,0,.27-1.69l-2.83-8.35a.82.82,0,0,1,.11-.75.85.85,0,0,1,.68-.36.86.86,0,0,1,.27,0l8.35,2.83a1.7,1.7,0,0,0,.59.1,1.8,1.8,0,0,0,1.1-.37l7.07-5.27a.81.81,0,0,1,.49-.17.83.83,0,0,1,.61.26.81.81,0,0,1,.24.59l-.12,8.82a1.87,1.87,0,0,0,.78,1.52l7.2,5.09a.84.84,0,0,1,.34.82.81.81,0,0,1-.58.66l-8.42,2.62a1.85,1.85,0,0,0-1.21,1.21l-2.61,8.42A.84.84,0,0,1,1542.6,242.2Z"/><path class="cls-4" d="M1547.18,212.1a.34.34,0,0,1,.25.11.3.3,0,0,1,.1.24l-.12,8.81a2.33,2.33,0,0,0,1,1.94l7.2,5.09a.33.33,0,0,1,.14.33.34.34,0,0,1-.24.27l-8.42,2.61a2.33,2.33,0,0,0-1.53,1.54l-2.62,8.42a.34.34,0,0,1-.33.24.33.33,0,0,1-.27-.14l-5.09-7.2a2.36,2.36,0,0,0-1.94-1h0l-8.82.11a.33.33,0,0,1-.3-.18.37.37,0,0,1,0-.36l5.28-7.06a2.36,2.36,0,0,0,.34-2.15l-2.83-8.35a.29.29,0,0,1,0-.3.33.33,0,0,1,.27-.15l.11,0,8.35,2.83a2.15,2.15,0,0,0,.75.13,2.36,2.36,0,0,0,1.4-.47l7.07-5.27a.28.28,0,0,1,.19-.07m0-1a1.28,1.28,0,0,0-.79.27l-7.07,5.27a1.29,1.29,0,0,1-.8.27,1.61,1.61,0,0,1-.43-.07l-8.35-2.83a1.31,1.31,0,0,0-.43-.08,1.34,1.34,0,0,0-1.26,1.77l2.83,8.35a1.35,1.35,0,0,1-.19,1.23l-5.28,7.07a1.33,1.33,0,0,0,1.07,2.13h0l8.82-.11h0a1.36,1.36,0,0,1,1.1.56l5.09,7.2a1.3,1.3,0,0,0,1.08.57,1.32,1.32,0,0,0,1.28-.94l2.62-8.42a1.34,1.34,0,0,1,.88-.88l8.42-2.62a1.34,1.34,0,0,0,.38-2.37l-7.2-5.09a1.35,1.35,0,0,1-.57-1.11l.12-8.81a1.35,1.35,0,0,0-1.35-1.36Z"/></svg>