<svg xmlns="http://www.w3.org/2000/svg" viewBox="0 0 861.52 360.72"><defs><style>.cls-1{fill:#ce3a3a;}.cls-2{fill:#ffaed7;stroke:#ffaed7;stroke-miterlimit:10;}.cls-3{fill:#94c45c;}.cls-4{fill:#9ab87a;}</style></defs><g id="Layer_2" data-name="Layer 2"><g id="Layer_1-2" data-name="Layer 1"><path class="cls-1" d="M706.35,360.22a154.69,154.69,0,0,1-36-4.23L56.66,268.17a62.87,62.87,0,0,1-.5-124.78l.44-.06v-.11L670.79,55.48a155.3,155.3,0,0,1,35.56-4.12c85.16,0,154.43,69.27,154.43,154.43S791.51,360.22,706.35,360.22Z"/><path class="cls-1" d="M706.36,51.86a153.93,153.93,0,0,1,0,307.86,154.9,154.9,0,0,1-35.87-4.21h-.09L56.7,267.67a62.37,62.37,0,0,1-.48-123.79l.88-.11v-.12L670.86,56H671a154.65,154.65,0,0,1,35.41-4.1m0-1A155.54,155.54,0,0,0,670.72,55L56.09,142.79v.1a63.37,63.37,0,0,0,.49,125.77l613.68,87.82a154.94,154.94,0,1,0,36.1-305.62Z"/><path class="cls-2" d="M.5,155.39A63.38,63.38,0,0,1,55.83,92.53v-.1L670.46,4.62a154.94,154.94,0,1,1-.46,301.5L56.32,218.3A63.37,63.37,0,0,1,.5,155.39Z"/><circle class="cls-3" cx="706.09" cy="155.43" r="54.43" transform="translate(439.57 827.51) rotate(-80.78)"/><path class="cls-4" d="M706.09,101.5a53.93,53.93,0,1,1-53.93,53.93,54,54,0,0,1,53.93-53.93m0-1A54.93,54.93,0,1,0,761,155.43a54.93,54.93,0,0,0-54.93-54.93Z"/></g></g></svg>