<svg xmlns="http://www.w3.org/2000/svg" viewBox="0 0 861.52 360.72"><defs><style>.cls-1{fill:#ce3a3a;}.cls-2{fill:#ffaed7;stroke:#ffaed7;stroke-miterlimit:10;}.cls-3{fill:#94c45c;}.cls-4{fill:#9ab87a;}</style></defs><g id="Layer_2" data-name="Layer 2"><g id="Layer_1-2" data-name="Layer 1"><path class="cls-1" d="M155.17,360.22C70,360.22.74,290.94.74,205.79S70,51.36,155.17,51.36a155.12,155.12,0,0,1,35.52,4.11l614.24,87.75v.11l.44.06a62.87,62.87,0,0,1-.49,124.78L191.19,356A154.84,154.84,0,0,1,155.17,360.22Z"/><path class="cls-1" d="M155.17,51.86a154.63,154.63,0,0,1,35.4,4.1h.09l613.76,87.68v.12l.88.11a62.37,62.37,0,0,1-.5,123.79L191.12,355.49H191a154.82,154.82,0,0,1-35.86,4.21,153.93,153.93,0,1,1,0-307.86m0-1a154.93,154.93,0,1,0,36.09,305.62l613.68-87.82a63.37,63.37,0,0,0,.49-125.77v-.1L190.8,55a155.51,155.51,0,0,0-35.63-4.12Z"/><path class="cls-2" d="M861,155.39a63.38,63.38,0,0,0-55.33-62.86v-.1L191.06,4.62a154.94,154.94,0,1,0,.46,301.5L805.2,218.3A63.37,63.37,0,0,0,861,155.39Z"/><circle class="cls-3" cx="155.43" cy="155.43" r="54.43"/><path class="cls-4" d="M155.43,101.5a53.93,53.93,0,1,1-53.93,53.93,54,54,0,0,1,53.93-53.93m0-1a54.93,54.93,0,1,0,54.93,54.93,54.93,54.93,0,0,0-54.93-54.93Z"/></g></g></svg>